# AST/ASF file generated using VICON BodyLanguage
# -----------------------------------------------
:version 1.10
:name VICON
:units
  mass 1.0
  length 0.45
  angle deg
:documentation
   .ast/.asf automatically generated from VICON data using
   VICON BodyBuilder and BodyLanguage model FoxedUp or BRILLIANT.MOD
:root
   order TX TY TZ RX RY RZ
   axis XYZ
   position 0 0 0  
   orientation 0 0 0 
:bonedata
  begin
     id 1 
     name lhipjoint
     direction 0.578396 -0.714046 0.394458 
     length 2.21935 
     axis 0 0 0  XYZ
  end
  begin
     id 2 
     name lfemur
     direction 0.34202 -0.939693 0  
     length 6.39105  
     axis 0 0 20  XYZ
    dof rx ry rz
    limits (-160.0 20.0)
           (-70.0 70.0)
           (-60.0 70.0)
  end
  begin
     id 3 
     name ltibia
     direction 0.34202 -0.939693 0   
     length 6.99037   
     axis 0 0 20   XYZ
    dof rx
    limits (-10.0 170.0)
  end
  begin
     id 4 
     name lfoot
     direction 0.0582372 -0.160005 0.985397   
     length 2.06111   
     axis -90 7.62852e-016 20   XYZ
    dof rx rz
    limits (-45.0 90.0)
           (-70.0 20.0)
  end
  begin
     id 5 
     name ltoes
     direction 1.53556e-011 -4.21875e-011 1   
     length 1.04074   
     axis -90 7.62852e-016 20   XYZ
    dof rx
    limits (-90.0 20.0)
  end
  begin
     id 6 
     name rhipjoint
     direction -0.558179 -0.726269 0.40121   
     length 2.182  
     axis 0 0 0  XYZ 
  end
  begin
     id 7 
     name rfemur
     direction -0.34202 -0.939693 0   
     length 6.51172   
     axis 0 0 -20   XYZ
    dof rx ry rz
    limits (-160.0 20.0)
           (-70.0 70.0)
           (-70.0 60.0)
  end
  begin
     id 8 
     name rtibia
     direction -0.34202 -0.939693 0   
     length 7.02607   
     axis 0 0 -20   XYZ
    dof rx
    limits (-10.0 170.0)
 end
 begin
     id 9 
     name rfoot
     direction -0.0788856 -0.216737 0.973038   
     length 1.96734  
     axis -90 -7.62852e-016 -20   XYZ
    dof rx rz
    limits (-45.0 90.0)
           (-20.0 70.0)
  end
  begin
     id 10 
     name rtoes
     direction -1.53567e-011 -4.21783e-011 1   
     length 0.990825   
     axis -90 -7.62852e-016 -20   XYZ
    dof rx
    limits (-90.0 20.0)
  end
  begin
     id 11 
     name lowerback
     direction 0.00668177 0.999323 -0.0361741   
     length 1.7655   
     axis 0 0 0   XYZ
    dof rx ry rz
    limits (-20.0 45.0)
           (-30.0 30.0)
           (-30.0 30.0)
  end
  begin
     id 12 
     name upperback
     direction -0.00222086 0.99851 0.0545167   
     length 1.74912   
     axis 0 0 0   XYZ
    dof rx ry rz
    limits (-20.0 45.0)
           (-30.0 30.0)
           (-30.0 30.0)
  end
  begin
     id 13 
     name thorax
     direction -0.00733971 0.997496 0.0703443   
     length 1.75715   
     axis 0 0 0   XYZ
    dof rx ry rz
    limits (-20.0 45.0)
           (-30.0 30.0)
           (-30.0 30.0)
  end
  begin
     id 14 
     name lowerneck
     direction 0.0279797 0.994795 0.0979765   
     length 1.46939   
     axis 0 0 0   XYZ
    dof rx ry rz
    limits (-20.0 45.0)
           (-30.0 30.0)
           (-30.0 30.0)
  end
  begin
     id 15 
     name upperneck
     direction 0.00339187 0.976776 -0.214238   
     length 1.48018   
     axis 0 0 0   XYZ
    dof rx ry rz
    limits (-20.0 45.0)
           (-30.0 30.0)
           (-30.0 30.0)
  end
  begin
     id 16
     name head
     direction -0.00263506 0.996603 -0.0823096  
     length 1.4976  
     axis 0 0 0   XYZ
    dof rx ry rz
    limits (-20.0 45.0)
           (-30.0 30.0)
           (-30.0 30.0)
  end
  begin
     id 17 
     name lclavicle
     direction 0.894044 0.44508 -0.0508781  
     length 3.03024  
     axis 0 0 0   XYZ
    dof ry rz
    limits (-20.0 10.0)
           (0.0 20.0)
  end
  begin
     id 18 
     name lhumerus
     direction 1 -4.48961e-011 -2.39475e-018   
     length 4.4661   
     axis 180 -30 -90   XYZ
    dof rx ry rz
    limits (-60.0 90.0)
           (-90.0 90.0)
           (-90.0 90.0)
  end
  begin
     id 19
     name lradius
     direction 1 -4.48961e-011 9.29328e-028   
     length 3.41414   
     axis 180 -30 -90   XYZ
    dof rx
    limits (-10.0 170.0)
  end
  begin
     id 20
     name lwrist
     direction 1 -4.48985e-011 1.53461e-026   
     length 1.70707   
     axis -1.09697e-014 90 90   XYZ
    dof ry
    limits (-180.0 0.0)
 end
  begin
     id 21 
     name lhand
     direction 1 -4.48966e-011 3.06923e-026   
     length 0.328298   
     axis -1.95843e-014 90 90   XYZ
    dof rx rz
    limits (-90.0 90.0)
           (-45.0 45.0)
  end
  begin
     id 22 
     name lfingers
     direction 1 -4.48893e-011 6.13845e-026   
     length 0.264682   
     axis -3.91686e-014 90 90   XYZ
    dof rx
    limits (0.0 90.0)
  end
  begin
     id 23
     name lthumb
     direction 0.707107 -6.34876e-011 0.707107   
     length 0.380032   
     axis -90 45 2.85299e-015   XYZ
    dof rx rz
    limits (-45.0 45.0)
           (-45.0 45.0)
  end
  begin
     id 24 
     name rclavicle
     direction -0.936955 0.347862 -0.0332887   
     length 3.26927  
     axis 0 0 0   XYZ 
    dof ry rz
    limits (-10.0 20.0)
           (-20.0 0.0)
  end
  begin
     id 25 
     name rhumerus
     direction -1 -4.4896e-011 1.78637e-018  
     length 4.40431   
     axis 180 30 90   XYZ
    dof rx ry rz
    limits (-90.0 60.0)
           (-90.0 90.0)
           (-90.0 90.0)
  end
  begin
     id 26 
     name rradius
     direction -1 -4.48955e-011 9.34036e-027   
     length 3.04688   
     axis 180 30 90   XYZ
    dof rx
    limits (-10.0 170.0)
  end
  begin
     id 27 
     name rwrist
     direction -1 -4.49011e-011 1.53461e-026   
     length 1.52344   
     axis -1.09697e-014 -90 -90   XYZ
    dof ry
    limits (-180.0 0.0)
  end
  begin
     id 28
     name rhand
     direction -1 -4.48834e-011 3.06923e-026   
     length 0.500489   
     axis -1.95843e-014 -90 -90   XYZ
    dof rx rz
    limits (-90.0 90.0)
           (-45.0 45.0)
  end
  begin
     id 29
     name rfingers
     direction -1 -4.48967e-011 6.13845e-026   
     length 0.403507   
     axis -3.91686e-014 -90 -90   XYZ
    dof rx
    limits (0.0 90.0)
  end
  begin
     id 30
     name rthumb
     direction -0.707107 -6.34826e-011 0.707107   
     length 0.579358   
     axis -90 -45 -2.85299e-015   XYZ
    dof rx rz
    limits (-45.0 45.0)
           (-45.0 45.0)
  end
:hierarchy
  begin
    root lhipjoint rhipjoint lowerback
    lhipjoint lfemur
    lfemur ltibia
    ltibia lfoot
    lfoot ltoes
    rhipjoint rfemur
    rfemur rtibia
    rtibia rfoot
    rfoot rtoes
    lowerback upperback
    upperback thorax
    thorax lowerneck lclavicle rclavicle
    lowerneck upperneck
    upperneck head
    lclavicle lhumerus
    lhumerus lradius
    lradius lwrist
    lwrist lhand lthumb
    lhand lfingers
    rclavicle rhumerus
    rhumerus rradius
    rradius rwrist
    rwrist rhand rthumb
    rhand rfingers
  end

#!OML:ASF H:\IndianDance\Patient Classification 1\Patient 1\Session 1\dancer.ASF
:FULLY-SPECIFIED
:DEGREES
873
root 5.57573 14.6739 2.2192 85.1051 -75.6871 -78.7494
lowerback 5.67902 -2.12802 0.424491
upperback -6.66802 -2.60211 4.84358
thorax -10.0993 -1.16345 5.35569
lowerneck -11.9805 -12.4986 -5.62572
upperneck 23.0766 -16.9879 0.70905
head 9.82359 -8.46196 -0.972456
rclavicle 3.61291e-014 -1.03368e-014
rhumerus -3.01567 23.4002 -18.6044
rradius 36.3038
rwrist 3.57122
rhand -21.3558 24.5578
rfingers 7.12502
rthumb 5.0308 -5.36248
lclavicle 3.61291e-014 -1.03368e-014
lhumerus 2.04785 -39.5405 -7.67496
lradius 83.8979
lwrist 30.7347
lhand 17.0623 17.5144
lfingers 7.12502
lthumb 41.7892 -677.825
rfemur -26.4669 -22.084 32.3822
rtibia 49.6455
rfoot -19.969 -13.7805
rtoes -2.70053
lfemur -30.5562 25.9207 -8.50149
ltibia 93.8524
lfoot -25.2567 5.426
ltoes -2.55321
874
root 5.57948 14.6825 2.23906 84.8804 -75.9424 -78.5381
lowerback 5.76252 -2.00872 0.27109
upperback -6.66188 -2.45645 4.75891
thorax -10.1519 -1.08114 5.33498
lowerneck -12.2494 -12.2625 -5.47055
upperneck 23.4159 -16.6725 0.595105
head 9.95835 -8.30751 -1.02273
rclavicle -2.61402e-014 -1.59028e-014
rhumerus -3.43645 22.7265 -18.6278
rradius 36.3664
rwrist 3.6137
rhand -22.7436 25.765
rfingers 7.12502
rthumb 3.69072 -4.18278
lclavicle -2.61402e-014 -1.59028e-014
lhumerus 2.20948 -39.1358 -7.57238
lradius 80.274
lwrist 29.214
lhand 15.4963 17.6348
lfingers 7.12502
lthumb 40.3186 -677.236
rfemur -26.4524 -21.9947 32.0023
rtibia 49.6584
rfoot -19.8998 -13.8076
rtoes -2.66134
lfemur -31.2863 25.109 -8.00531
ltibia 91.5267
lfoot -25.583 6.14965
ltoes -2.41478
875
root 5.58262 14.69 2.26363 84.6771 -76.2594 -78.3517
lowerback 5.86021 -1.89209 0.0928689
upperback -6.64911 -2.31831 4.64887
thorax -10.2052 -1.00129 5.30167
lowerneck -12.498 -12.0322 -5.33208
upperneck 23.7134 -16.377 0.549126
head 10.0846 -8.15699 -1.04778
rclavicle -3.4191e-014 1.59028e-014
rhumerus -3.84092 21.8938 -18.7164
rradius 36.3676
rwrist 3.57915
rhand -24.1939 26.9547
rfingers 7.12502
rthumb 2.29014 -3.01272
lclavicle -3.4191e-014 1.59028e-014
lhumerus 2.36261 -38.674 -7.43607
lradius 76.6008
lwrist 27.3817
lhand 13.7723 17.594
lfingers 7.12502
lthumb 38.6948 -676.799
rfemur -26.458 -21.9325 31.531
rtibia 49.719
rfoot -19.8394 -13.7998
rtoes -2.66733
lfemur -31.8559 24.2452 -7.68881
ltibia 88.5976
lfoot -25.8562 7.18152
ltoes -1.89399
876
root 5.585 14.6967 2.29295 84.4458 -76.639 -78.1338
lowerback 5.96527 -1.78253 -0.108935
upperback -6.62999 -2.19418 4.51054
thorax -10.2549 -0.927439 5.2524
lowerneck -12.7119 -11.8139 -5.22198
upperneck 23.9484 -16.1113 0.587497
head 10.1946 -8.01424 -1.03969
rclavicle -2.9122e-014 -3.02153e-014
rhumerus -4.22399 20.9173 -18.8662
rradius 36.3212
rwrist 3.38821
rhand -25.6276 28.0888
rfingers 7.12502
rthumb 0.905379 -1.88902
lclavicle -2.9122e-014 -3.02153e-014
lhumerus 2.50722 -38.1391 -7.27528
lradius 72.8957
lwrist 25.2939
lhand 11.9623 17.4145
lfingers 7.12502
lthumb 36.985 -676.517
rfemur -26.4945 -21.9158 30.9682
rtibia 49.8312
rfoot -19.7915 -13.7487
rtoes -2.70396
lfemur -32.2458 23.338 -7.53667
ltibia 85.0601
lfoot -26.2066 8.43523
ltoes -1.42034
877
root 5.58628 14.7028 2.3271 84.1558 -77.0838 -77.845
lowerback 6.06474 -1.6829 -0.336065
upperback -6.60772 -2.08881 4.34387
thorax -10.2964 -0.862027 5.18831
lowerneck -12.8832 -11.6143 -5.14416
upperneck 24.1182 -15.8809 0.697971
head 10.2844 -7.88359 -1.00179
rclavicle 2.32578e-014 -7.95139e-015
rhumerus -4.58512 19.8604 -19.0568
rradius 36.2464
rwrist 2.98806
rhand -27.0103 29.1098
rfingers 7.12502
rthumb -0.430064 -0.869518
lclavicle 2.32578e-014 -7.95139e-015
lhumerus 2.6346 -37.5285 -7.09504
lradius 69.1975
lwrist 23.0993
lhand 10.1453 17.161
lfingers 7.12502
lthumb 35.2641 -676.345
rfemur -26.5801 -21.9632 30.3118
rtibia 50.0162
rfoot -19.7686 -13.6395
rtoes -2.7478
lfemur -32.4411 22.3981 -7.53604
ltibia 80.9597
lfoot -26.5717 9.87288
ltoes -0.698456
878
root 5.58649 14.7076 2.36593 83.8001 -77.5798 -77.475
lowerback 6.14309 -1.59427 -0.572694
upperback -6.57665 -2.00218 4.15326
thorax -10.3142 -0.806624 5.10423
lowerneck -13.0228 -11.4389 -5.09447
upperneck 24.2196 -15.6892 0.866524
head 10.3527 -7.76735 -0.940288
rclavicle 1.5704e-014 -2.8625e-014
rhumerus -4.91125 18.758 -19.2723
rradius 36.1499
rwrist 2.34398
rhand -28.2842 29.9952
rfingers 7.12502
rthumb -1.66038 0.0219141
lclavicle 1.5704e-014 -2.8625e-014
lhumerus 2.73508 -36.828 -6.90079
lradius 65.5453
lwrist 20.9312
lhand 8.41442 16.9
lfingers 7.12502
lthumb 33.621 -676.233
rfemur -26.7288 -22.0826 29.5792
rtibia 50.294
rfoot -19.7849 -13.4581
rtoes -2.79006
lfemur -32.4256 21.5095 -7.6528
ltibia 76.5075
lfoot -26.8454 11.2098
ltoes 1.06103
879
root 5.58698 14.7069 2.40907 83.3588 -78.1192 -76.9929
lowerback 6.19786 -1.51938 -0.811102
upperback -6.54234 -1.93679 3.94473
thorax -10.3129 -0.762842 5.00323
lowerneck -13.1466 -11.2891 -5.06667
upperneck 24.264 -15.5322 1.06597
head 10.403 -7.66572 -0.866184
rclavicle -7.30534e-015 3.97569e-015
rhumerus -5.18736 17.6462 -19.4942
rradius 36.0365
rwrist 1.47657
rhand -29.446 30.7141
rfingers 7.12502
rthumb -2.78248 0.752524
lclavicle -7.30534e-015 3.97569e-015
lhumerus 2.78466 -36.0447 -6.69435
lradius 61.9901
lwrist 18.8907
lhand 6.67017 16.6385
lfingers 7.12502
lthumb 31.9617 -676.148
rfemur -26.9883 -22.301 28.7844
rtibia 50.7055
rfoot -19.8302 -13.1857
rtoes -2.83297
lfemur -32.2308 20.7977 -7.89115
ltibia 72.0343
lfoot -27.0467 12.2391
ltoes 2.58736
880
root 5.58757 14.7005 2.45661 82.9222 -78.6839 -76.49
lowerback 6.22327 -1.45405 -1.03255
upperback -6.50708 -1.88424 3.72943
thorax -10.2925 -0.727737 4.88574
lowerneck -13.2364 -11.1602 -5.06764
upperneck 24.2394 -15.3998 1.29064
head 10.4272 -7.57599 -0.777411
rclavicle 2.19657e-014 -1.11319e-014
rhumerus -5.39956 16.5587 -19.7031
rradius 35.8998
rwrist 0.453351
rhand -30.4586 31.3092
rfingers 7.12502
rthumb -3.76032 1.36259
lclavicle 2.19657e-014 -1.11319e-014
lhumerus 2.75912 -35.1914 -6.47449
lradius 58.5719
lwrist 17.003
lhand 5.01803 16.4297
lfingers 7.12502
lthumb 30.3872 -676.054
rfemur -27.3632 -22.5975 27.9483
rtibia 51.2592
rfoot -19.8894 -12.8155
rtoes -2.89417
lfemur -31.9399 20.312 -8.24328
ltibia 67.8403
lfoot -27.0647 13.0526
ltoes 3.71354
881
root 5.58852 14.6878 2.5084 82.5783 -79.2547 -76.0519
lowerback 6.22086 -1.3943 -1.2206
upperback -6.47454 -1.83629 3.51948
thorax -10.2589 -0.697991 4.75493
lowerneck -13.3413 -11.054 -5.07611
upperneck 24.197 -15.2853 1.48308
head 10.4458 -7.49818 -0.70074
rclavicle -2.93207e-015 -7.15625e-015
rhumerus -5.52742 15.4781 -19.8908
rradius 35.711
rwrist -0.594558
rhand -31.3538 31.8185
rfingers 7.12502
rthumb -4.62475 1.88903
lclavicle -2.93207e-015 -7.15625e-015
lhumerus 2.6416 -34.2686 -6.23411
lradius 55.3154
lwrist 15.208
lhand 3.45185 16.2039
lfingers 7.12502
lthumb 28.8922 -676.014
rfemur -27.8636 -22.9615 27.0993
rtibia 51.9563
rfoot -19.9238 -12.3513
rtoes -3.00264
lfemur -31.6248 20.119 -8.71069
ltibia 64.2236
lfoot -26.9649 13.5721
ltoes 4.32743
882
root 5.58946 14.6734 2.56437 82.4444 -79.8104 -75.8018
lowerback 6.19704 -1.33462 -1.35331
upperback -6.44576 -1.78222 3.32379
thorax -10.2184 -0.669503 4.60699
lowerneck -13.4362 -10.9645 -5.08797
upperneck 24.1138 -15.1808 1.64422
head 10.4451 -7.4292 -0.632871
rclavicle -2.09221e-014 3.18055e-015
rhumerus -5.56159 14.4037 -20.051
rradius 35.4513
rwrist -1.55348
rhand -32.155 32.2856
rfingers 7.12502
rthumb -5.39842 2.37439
lclavicle -2.09221e-014 3.18055e-015
lhumerus 2.42889 -33.2732 -5.97091
lradius 52.2308
lwrist 13.3939
lhand 2.00766 15.9758
lfingers 7.12502
lthumb 27.5119 -676.014
rfemur -28.4657 -23.384 26.269
rtibia 52.7628
rfoot -19.8918 -11.7835
rtoes -3.10164
lfemur -31.3538 20.2573 -9.28855
ltibia 61.3784
lfoot -26.7345 13.7861
ltoes 4.26483
883
root 5.59053 14.6607 2.62416 82.6541 -80.3352 -75.876
lowerback 6.16633 -1.27233 -1.42268
upperback -6.43048 -1.71683 3.15224
thorax -10.1908 -0.639385 4.44855
lowerneck -13.5043 -10.8843 -5.10524
upperneck 23.9945 -15.0769 1.77296
head 10.4237 -7.36568 -0.571846
rclavicle 3.37934e-015 1.43125e-014
rhumerus -5.48663 13.3235 -20.1896
rradius 35.092
rwrist -2.30296
rhand -32.8427 32.7958
rfingers 7.12502
rthumb -6.06233 2.90258
lclavicle 3.37934e-015 1.43125e-014
lhumerus 2.11509 -32.2053 -5.67885
lradius 49.3272
lwrist 11.4552
lhand 0.757988 15.78
lfingers 7.12502
lthumb 26.3162 -676.026
rfemur -29.1597 -23.8561 25.4892
rtibia 53.6549
rfoot -19.7474 -11.1287
rtoes -3.16109
lfemur -31.1666 20.7097 -9.9625
ltibia 59.3786
lfoot -26.474 13.7716
ltoes 3.71918
884
root 5.59213 14.6507 2.68732 83.3222 -80.8094 -76.3984
lowerback 6.14724 -1.20316 -1.41466
upperback -6.42886 -1.6324 3.00941
thorax -10.1879 -0.604355 4.2762
lowerneck -13.548 -10.8129 -5.12926
upperneck 23.8533 -14.9745 1.8709
head 10.3874 -7.30787 -0.517983
rclavicle -6.60959e-015 1.98785e-014
rhumerus -5.30777 12.2492 -20.3117
rradius 34.6284
rwrist -2.80307
rhand -33.4415 33.3337
rfingers 7.12502
rthumb -6.64045 3.45786
lclavicle -6.60959e-015 1.98785e-014
lhumerus 1.71313 -31.0576 -5.36356
lradius 46.5944
lwrist 9.29203
lhand -0.31684 15.5018
lfingers 7.12502
lthumb 25.2869 -676.154
rfemur -29.9368 -24.3706 24.7938
rtibia 54.6171
rfoot -19.4606 -10.4104
rtoes -3.08131
lfemur -31.0736 21.4124 -10.6917
ltibia 58.149
lfoot -26.2782 13.6545
ltoes 2.70436
885
root 5.59469 14.6427 2.75346 84.5202 -81.224 -77.4479
lowerback 6.15707 -1.12373 -1.32892
upperback -6.44245 -1.52424 2.89526
thorax -10.2219 -0.561843 4.08958
lowerneck -13.5782 -10.7531 -5.15189
upperneck 23.7137 -14.8791 1.927
head 10.3455 -7.25835 -0.478547
rclavicle 2.2413e-014 -7.15625e-015
rhumerus -5.04285 11.2112 -20.4234
rradius 34.0729
rwrist -3.0824
rhand -33.9397 33.8571
rfingers 7.12502
rthumb -7.12136 3.99694
lclavicle 2.2413e-014 -7.15625e-015
lhumerus 1.23802 -29.8206 -5.03246
lradius 44.0529
lwrist 6.9438
lhand -1.15738 15.2142
lfingers 7.12502
lthumb 24.4814 -676.33
rfemur -30.8041 -24.9324 24.2029
rtibia 55.665
rfoot -19.0241 -9.66453
rtoes -2.78843
lfemur -31.0499 22.2836 -11.4401
ltibia 57.5037
lfoot -26.1592 13.4959
ltoes 1.63053
886
root 5.59842 14.6362 2.82184 86.304 -81.5617 -79.0948
lowerback 6.21507 -1.03084 -1.16357
upperback -6.46873 -1.38734 2.81033
thorax -10.3016 -0.509433 3.88776
lowerneck -13.5892 -10.7046 -5.17713
upperneck 23.5818 -14.795 1.95718
head 10.3012 -7.21783 -0.448226
rclavicle -1.40143e-014 1.98785e-015
rhumerus -4.7181 10.2504 -20.5332
rradius 33.4592
rwrist -3.26546
rhand -34.3045 34.2747
rfingers 7.12502
rthumb -7.47348 4.42668
lclavicle -1.40143e-014 1.98785e-015
lhumerus 0.718886 -28.5037 -4.69905
lradius 41.7041
lwrist 4.50152
lhand -1.78036 14.9145
lfingers 7.12502
lthumb 23.884 -676.551
rfemur -31.7543 -25.538 23.7445
rtibia 56.8088
rfoot -18.4472 -8.94561
rtoes -2.23625
lfemur -31.0505 23.2429 -12.1525
ltibia 57.2167
lfoot -26.1377 13.3104
ltoes 0.677158
